<?xml version="1.0" encoding="UTF-8" standalone="no"?>
<svg
   width="26"
   height="24"
   viewBox="0 0 26 24"
   version="1.1"
   id="svg1"
   sodipodi:docname="gamepad-atom.svg"
   inkscape:version="1.3.2 (091e20ef0f, 2023-11-25)"
   xmlns:inkscape="http://www.inkscape.org/namespaces/inkscape"
   xmlns:sodipodi="http://sodipodi.sourceforge.net/DTD/sodipodi-0.dtd"
   xmlns="http://www.w3.org/2000/svg"
   xmlns:svg="http://www.w3.org/2000/svg">
  <defs
     id="defs1" />
  <sodipodi:namedview
     id="namedview1"
     pagecolor="#ffffff"
     bordercolor="#000000"
     borderopacity="0.25"
     inkscape:showpageshadow="2"
     inkscape:pageopacity="0.0"
     inkscape:pagecheckerboard="true"
     inkscape:deskcolor="#d1d1d1"
     inkscape:zoom="33.410795"
     inkscape:cx="7.8268116"
     inkscape:cy="14.516266"
     inkscape:window-width="2560"
     inkscape:window-height="1374"
     inkscape:window-x="0"
     inkscape:window-y="0"
     inkscape:window-maximized="1"
     inkscape:current-layer="svg1" />
  <g
     id="g2"
     transform="matrix(0.20413953,0,0,0.20413953,6.5297065,7.70169)"
     style="fill:#ffffff;fill-opacity:1">
    <path
       stroke="none"
       fill="#fcfcfc"
       d="m 15.65,15.8 q 1.3,-0.9 2.85,-1.35 1.55,-0.5 3.15,-0.45 h 21.1 q 3.2,0.05 5.95,2 2.7,2 3.7,5 l 0.7,3.25 2.75,17.35 q 0.25,1.05 0.05,2.05 -0.25,1.1 -0.95,1.85 -0.85,1.05 -2.25,1.4 l -2.6,-0.25 q -0.6,-0.2 -1.25,-0.8 l -1.1,-1.1 -3.4,-3.4 L 41,38 H 23 l -7.65,7.65 q -0.65,0.75 -1.6,1.1 l -1.9,0.2 Q 10.15,46.85 9,45.45 7.85,44.05 8,42.4 l 3.15,-19.7 q 0.35,-2.1 1.55,-3.9 1.15,-1.8 2.95,-3 M 40,27 Q 40,26.15 39.4,25.55 38.85,25 38,25 37.15,25 36.55,25.55 36,26.15 36,27 q 0,0.85 0.55,1.4 0.6,0.6 1.45,0.6 0.85,0 1.4,-0.6 Q 40,27.85 40,27 M 20,21 v 4 h -4 v 4 h 4 v 4 h 4 v -4 h 4 V 25 H 24 V 21 H 20 M 44,31 Q 44,30.15 43.4,29.55 42.85,29 42,29 41.15,29 40.55,29.55 40,30.15 40,31 q 0,0.85 0.55,1.4 0.6,0.6 1.45,0.6 0.85,0 1.4,-0.6 Q 44,31.85 44,31 m 4,-4 Q 48,26.15 47.4,25.55 46.85,25 46,25 45.15,25 44.55,25.55 44,26.15 44,27 q 0,0.85 0.55,1.4 0.6,0.6 1.45,0.6 0.85,0 1.4,-0.6 Q 48,27.85 48,27 M 44,23 Q 44,22.15 43.4,21.55 42.85,21 42,21 41.15,21 40.55,21.55 40,22.15 40,23 q 0,0.85 0.55,1.4 0.6,0.6 1.45,0.6 0.85,0 1.4,-0.6 Q 44,23.85 44,23"
       id="path1-5"
       style="fill:#ffffff;fill-opacity:1" />
  </g>
  <path
     id="path1"
     d="m 8.6114755,0.38550541 a 2.8654046,2.8654046 0 0 0 -0.7052337,0.077519 l -0.017016,0.005672 A 2.2845793,2.2845793 0 0 0 6.7529103,1.2098538 l -0.00378,0.00378 A 2.7105178,2.7105178 0 0 0 6.3445176,1.8583663 C 6.2498388,2.0707099 6.1767308,2.2952057 6.1233049,2.5465837 A 6.1954694,6.1954694 0 0 0 5.8945293,4.4769958 l 0.00189,0.034033 A 15.488673,15.488673 0 0 0 6.08549,6.388501 c 0.020006,0.1529504 0.041696,0.3064913 0.064284,0.4594419 0.022498,0.1523419 0.05106,0.3070999 0.085082,0.4594418 -0.042681,0.014241 -0.087431,0.026956 -0.1399124,0.037814 h -0.00756 c -0.049693,0.010971 -0.093628,0.024262 -0.1323495,0.037814 -0.597604,0.1355257 -1.1803867,0.2968664 -1.7470134,0.4840211 l -0.073738,0.022688 A 10.164442,10.164442 0 0 0 2.538524,8.5817211 L 2.510163,8.5949561 C 2.2091026,8.7479066 1.9252389,8.9306098 1.6725802,9.1300262 l -0.00945,0.00756 C 1.4031675,9.3405621 1.1707969,9.5775334 0.96356491,9.8503857 A 2.8073221,2.8073221 0 0 0 0.5135766,10.720111 l -0.001891,0.0038 A 2.1780947,2.1780947 0 0 0 0.4492923,11.68628 l 0.001891,0.01702 a 2.7105178,2.7105178 0 0 0 0.25335476,0.735486 l 0.009454,0.01891 a 3.5817557,3.5817557 0 0 0 0.44998834,0.659857 l 0.00378,0.0057 a 5.8082525,5.8082525 0 0 0 0.9566978,0.85649 7.4539241,7.4539241 0 0 0 1.117408,0.661748 h 0.00189 l 0.00189,0.0019 a 0.58082525,0.58082525 0 0 0 0.4083927,0.05105 l 0.00189,-0.0019 a 0.4646602,0.4646602 0 0 0 0.3025131,-0.251465 0.43561894,0.43561894 0 0 1 0,-0.0019 0.43561894,0.43561894 0 0 0 0.039705,-0.370578 l -0.00189,-0.0038 A 0.60018609,0.60018609 0 0 0 3.7353416,13.750915 L 3.4800961,13.597768 C 3.3949085,13.546784 3.3003479,13.495603 3.1983808,13.444621 2.9266839,13.27489 2.6648734,13.091859 2.4099559,12.896315 l -0.00756,-0.0038 C 2.148148,12.69493 1.9305539,12.454516 1.7482084,12.172174 l -0.00189,-0.0019 C 1.5536964,11.928585 1.4400231,11.622246 1.4400231,11.289214 v -0.0416 A 1.3552589,1.3552589 0 0 1 1.8465251,10.385456 6.7762946,6.7762946 0 0 1 2.3702511,9.9146697 4.8402104,4.8402104 0 0 1 2.9431354,9.5195119 8.4219662,8.4219662 0 0 1 4.5502365,8.8180595 C 5.1117003,8.63994 5.6799472,8.4815539 6.2575451,8.3453828 l -0.00189,0.00189 a 0.26137136,0.26137136 0 0 1 0.1928521,0.011344 0.24201052,0.24201052 0 0 1 0.085082,0.1701637 L 6.9400904,9.803118 c 0.1355673,0.423406 0.2807737,0.847788 0.4329719,1.270555 l 0.00189,0.0057 a 0.87123788,0.87123788 0 0 1 0.051049,0.279825 v 0.0019 a 0.62922736,0.62922736 0 0 1 -0.075628,0.272262 30.977347,30.977347 0 0 0 -1.5692869,3.429742 c -0.4354979,1.129003 -0.7422472,2.324023 -0.9018673,3.63394 a 7.7443367,7.7443367 0 0 0 -0.05294,1.297024 v 0.0076 a 4.162581,4.162581 0 0 0 0.2533548,1.264883 l 0.00567,0.01891 a 2.5169094,2.5169094 0 0 0 0.8810695,1.238413 2.3039402,2.3039402 0 0 0 1.4842053,0.42919 h 0.00378 c 0.7153825,-0.0097 1.3876284,-0.1878 1.9587727,-0.484021 l 0.066175,-0.03025 C 10.067875,22.130954 10.626694,21.77547 11.122331,21.398902 l 0.0019,-0.0019 a 0.42593852,0.42593852 0 0 0 0.16449,-0.457551 l -0.0019,-0.0019 a 0.51306231,0.51306231 0 0 0 -0.336546,-0.378142 0.45497978,0.45497978 0 0 1 -0.0019,0 0.45497978,0.45497978 0 0 0 -0.279825,-0.01513 l -0.0095,0.0019 a 0.96804209,0.96804209 0 0 0 -0.245792,0.113442 c -0.336299,0.235474 -0.6764809,0.454046 -1.0209822,0.656076 l -0.011344,0.0076 c -0.343084,0.200069 -0.7128738,0.360872 -1.1363151,0.484021 l -0.448036,0.100108 H 7.79469 a 1.5488673,1.5488673 0 0 1 -0.4934745,0.02647 C 6.9798258,21.929055 6.6854043,21.809865 6.4598507,21.616257 v -0.0019 C 6.2284889,21.393653 6.0652222,21.102317 6.0022996,20.765439 A 4.3561894,4.3561894 0 0 1 5.8604965,19.415473 c 0.025815,-0.442072 0.07215,-0.885204 0.1399124,-1.327277 l 0.017016,-0.09642 A 14.520631,14.520631 0 0 1 6.6394675,15.75696 c 0.2716969,-0.755718 0.5768879,-1.499841 0.9169931,-2.231034 0.068408,-0.152951 0.1364334,-0.301646 0.2041963,-0.446208 0.067763,-0.14456 0.143588,-0.301056 0.2287756,-0.470786 l 0.086973,0.147476 0.05294,0.102098 c 0.4246474,0.951261 0.8863338,1.871679 1.3877791,2.764214 l 0.073738,0.141803 a 27.105178,27.105178 0 0 0 1.5673964,2.454138 c 0.526614,0.730548 1.087707,1.436137 1.682729,2.115701 l 0.01513,0.01702 a 14.520631,14.520631 0 0 0 1.945538,1.84344 11.616505,11.616505 0 0 1 0.0019,0 11.616505,11.616505 0 0 0 1.211943,0.830021 c 0.401424,0.237006 0.844813,0.412882 1.342402,0.518053 0.0031,8.18e-4 0.0064,0.0011 0.0095,0.0019 l 0.0076,0.0019 c 0.192966,0.04938 0.393043,0.075 0.601245,0.07563 0.383343,0 0.746209,-0.09003 1.055014,-0.242011 l 0.01324,-0.0076 c 0.484013,-0.252031 0.871539,-0.666208 1.098501,-1.183583 a 3.8721684,3.8721684 0 0 0 0.18907,-0.446207 c 0.05098,-0.147143 0.09247,-0.287347 0.126678,-0.423519 l -0.0095,0.04727 a 7.1635114,7.1635114 0 0 0 0.189071,-2.024948 l -0.0019,-0.05105 c -0.03678,-0.690213 -0.108451,-1.368117 -0.200415,-1.92474 l -0.01702,-0.113443 C 20.258247,16.30092 20.028851,15.374003 19.77232,14.611187 19.483199,13.710909 19.159272,12.829025 18.802387,11.962306 18.683641,11.67641 18.556636,11.392219 18.420465,11.111487 18.284293,10.830756 18.157288,10.555055 18.038542,10.283357 l -0.0019,-0.0038 a 0.48402104,0.48402104 0 0 0 -0.224994,-0.249573 0.48402104,0.48402104 0 0 0 -0.308186,-0.05294 h -0.0038 a 0.52274273,0.52274273 0 0 0 -0.302513,0.153147 c -0.07938,0.07551 -0.128568,0.182521 -0.128568,0.300623 v 0.0038 a 0.29041263,0.29041263 0 0 0 0.01324,0.192852 l 0.0019,0.0057 a 0.77443367,0.77443367 0 0 0 0.08319,0.185289 c 0.356884,0.766043 0.68672,1.540256 0.992621,2.321788 0.3059,0.781532 0.578647,1.57979 0.816786,2.395526 0.203933,0.798312 0.374319,1.601415 0.51049,2.408761 a 9.9708335,9.9708335 0 0 1 0.102098,2.459811 l -0.0038,0.03592 a 6.7762946,6.7762946 0 0 1 -0.138021,0.741157 l -0.0038,0.01702 c -0.06195,0.248787 -0.162465,0.483084 -0.289279,0.684436 l -0.0038,0.0076 C 19.03125,22.106322 18.85579,22.285661 18.637824,22.4142 a 1.3552589,1.3552589 0 0 1 -0.760064,0.156929 h -0.0057 c -0.314614,-0.01742 -0.61504,-0.08904 -0.873507,-0.202305 l -0.03214,-0.01324 c -0.27686,-0.120037 -0.541015,-0.265773 -0.771409,-0.421627 l -0.0397,-0.02269 c -0.531454,-0.33591 -1.026503,-0.722644 -1.476642,-1.14955 l -0.0095,-0.0076 C 14.21031,20.319466 13.773678,19.863079 13.339995,19.360666 12.847585,18.783068 12.384008,18.182795 11.950325,17.562604 11.516643,16.942412 11.104246,16.305494 10.713802,15.651098 10.323499,14.99668 9.9622822,14.330272 9.6305668,13.650707 9.2992155,12.971889 8.981353,12.284151 8.6757596,11.587946 A 0.33881473,0.33881473 0 0 1 8.6625247,11.419673 0.24201052,0.24201052 0 0 1 8.7268087,11.27976 C 9.0669138,10.735721 9.4154853,10.192119 9.7723697,9.64808 L 10.857636,8.0239625 v -0.00189 a 0.27105178,0.27105178 0 0 1 0.153147,-0.1399123 0.67762946,0.67762946 0 0 1 0.219322,-0.037814 h 0.0095 c 0.595023,0.020006 1.19465,0.041697 1.798063,0.064284 0.603413,0.022588 1.20304,0.050878 1.798063,0.085082 l 0.06239,0.00378 a 18.3928,18.3928 0 0 1 2.16675,0.277934 c 0.738293,0.1355257 1.473372,0.2968664 2.204565,0.4840211 l 0.151257,0.034033 A 18.3928,18.3928 0 0 1 21.3227,9.4211951 l 0.06996,0.024579 a 10.261246,10.261246 0 0 1 1.854784,0.9453539 l 0.02647,0.01513 a 5.8082525,5.8082525 0 0 1 0.699561,0.493474 l 0.0057,0.0057 a 3.2913431,3.2913431 0 0 1 0.588009,0.629605 l 0.0019,0.0038 c 0.205574,0.253146 0.328983,0.575577 0.328983,0.926446 v 0.01323 c -0.03195,0.351398 -0.19193,0.667646 -0.432971,0.899976 -0.138754,0.136172 -0.280849,0.263177 -0.425409,0.381923 l 0.0076,-0.0038 c -0.140265,0.115952 -0.289975,0.221268 -0.461332,0.325202 a 4.3561894,4.3561894 0 0 1 -0.61259,0.328982 c -0.212323,0.09358 -0.419999,0.192984 -0.623933,0.294951 h -0.0038 A 0.55178399,0.55178399 0 0 0 22.069529,14.995 v 0.0019 a 0.45497978,0.45497978 0 0 0 0,0.370579 v 0.0019 a 0.4646602,0.4646602 0 0 0 0.251465,0.276043 h 0.0019 a 0.51306231,0.51306231 0 0 0 0.357344,0.02836 l 0.06428,-0.0208 a 8.7123788,8.7123788 0 0 0 1.236523,-0.574775 l 0.02458,-0.01324 a 5.1306231,5.1306231 0 0 0 1.096611,-0.835693 l 0.0019,-0.0019 A 2.5362703,2.5362703 0 0 0 25.91901,12.56166 l 0.0019,-0.08508 c 0,-0.644716 -0.233072,-1.236281 -0.61448,-1.690292 l -0.0076,-0.0095 C 25.087567,10.518906 24.855318,10.27978 24.593623,10.058363 24.336124,9.8415222 24.065904,9.6405775 23.752258,9.4363208 23.223849,9.1148066 22.667422,8.8289693 22.012809,8.5590327 21.45375,8.3300198 20.877791,8.1261703 20.180713,7.9313179 l 0.181507,0.047268 C 19.052461,7.5807206 17.697865,7.2864655 16.179977,7.0899532 l 0.179617,0.018907 C 14.979167,6.9288046 13.574489,6.8285213 12.1263,6.8101285 h -0.279825 a 0.09680421,0.09680421 0 0 1 0.01135,-0.064284 0.0484021,0.0484021 0 0 0 0.01323,-0.034033 v -0.00378 C 11.956242,6.6060633 12.048912,6.4959029 12.15088,6.3771565 12.252847,6.2584102 12.355207,6.1482498 12.457174,6.0462828 12.982357,5.453603 13.532635,4.8867433 14.107762,4.3446463 A 14.520631,14.520631 0 0 1 15.97578,2.8604412 c 0.331221,-0.1989847 0.662676,-0.3818845 0.994512,-0.5483051 a 4.646602,4.646602 0 0 1 1.109846,-0.3913765 1.7231149,1.7231149 0 0 1 1.287571,0.1096611 l 0.0057,0.00378 a 1.4520631,1.4520631 0 0 1 0.654184,1.0209819 5.8082525,5.8082525 0 0 1 0.103989,0.7600643 V 3.798232 a 5.8082525,5.8082525 0 0 1 0,0.7695177 c -9.68e-4,0.2207134 -0.0191,0.4361335 -0.05105,0.6239334 -0.0341,0.2116897 -0.05885,0.4186928 -0.07563,0.6220427 a 0.48402104,0.48402104 0 0 1 0,0.00189 0.48402104,0.48402104 0 0 0 0.102099,0.3838136 0.48402104,0.48402104 0 0 0 0.330873,0.1777264 0.51306231,0.51306231 0 0 0 0.370579,-0.085082 l 0.0019,-0.00189 A 0.43561894,0.43561894 0 0 0 20.999424,5.972545 c 0.0304,-0.1061172 0.05744,-0.2125069 0.07752,-0.3384366 0.01665,-0.1030028 0.03309,-0.2121778 0.04916,-0.3252017 0.05117,-0.4280141 0.07752,-0.8631717 0.07752,-1.3045879 v -0.011344 c 0,-0.4636916 -0.07448,-0.9107313 -0.204197,-1.2989157 l -0.0038,-0.022689 C 20.885251,2.2870581 20.700521,1.9343875 20.464319,1.6352629 l -0.0038,-0.00378 C 20.215866,1.3357567 19.888613,1.1101005 19.500058,0.98675031 a 2.6137136,2.6137136 0 0 0 -1.011529,-0.155038 h -0.0095 A 3.8721684,3.8721684 0 0 0 17.507253,1.0094388 l -0.04538,0.011344 a 6.2922736,6.2922736 0 0 0 -1.435047,0.6277148 l -0.06239,0.034033 a 13.552589,13.552589 0 0 0 -1.262993,0.858381 l -0.04538,0.032142 a 17.424758,17.424758 0 0 0 -2.12137,1.8680187 28.073221,28.073221 0 0 0 -1.886926,2.1780947 v 0.00189 a 0.67762946,0.67762946 0 0 1 -0.202305,0.1777264 0.96804209,0.96804209 0 0 1 -0.255246,0.075628 C 9.7320099,6.9086166 9.2732781,6.9471519 8.8137812,6.9897457 8.3542844,7.0323395 7.8865074,7.0805652 7.4108764,7.1315487 h -0.00756 C 7.3568477,7.1309034 7.3177579,7.117013 7.2841991,7.0918439 A 0.13552589,0.13552589 0 0 1 7.23315,6.9916364 0.13552589,0.13552589 0 0 1 7.23126,6.9859664 v -0.00756 C 7.1175822,6.4367708 7.0282685,5.8804176 6.9646695,5.2559671 a 8.2283577,8.2283577 0 0 1 0.011344,-1.7451226 l 0.00378,-0.032142 A 5.8082525,5.8082525 0 0 1 7.1291611,2.7072938 l 0.00378,-0.013235 A 1.9360842,1.9360842 0 0 1 7.4865047,1.9812623 l 0.00189,-0.00567 a 1.1616505,1.1616505 0 0 1 0.4443169,-0.414067 l -0.00756,0.00189 c 0.1761835,-0.090996 0.3760089,-0.1436937 0.58801,-0.1436937 h 0.013235 0.024579 a 2.4201052,2.4201052 0 0 1 0.7789714,0.128568 l 0.02647,0.00756 a 3.4849515,3.4849515 0 0 1 0.676873,0.3252016 l 0.03214,0.017016 a 6.7762946,6.7762946 0 0 1 0.552087,0.3649064 c 0.186748,0.1352309 0.382665,0.2706287 0.586119,0.4065021 h 0.0019 a 0.50338189,0.50338189 0 0 0 0.368687,0.1020982 h 0.0038 A 0.48402104,0.48402104 0 0 0 11.89377,2.5938474 0.44529936,0.44529936 0 0 0 12.035573,2.2667551 l -0.0019,-0.030251 v -0.00189 C 12.024106,2.0970974 11.963759,1.9727086 11.869164,1.8829455 11.499925,1.5926372 11.113065,1.3212342 10.659112,1.0415808 A 4.7434062,4.7434062 0 0 0 9.3148186,0.48193148 l -0.020798,-0.005672 a 4.7434062,4.7434062 0 0 1 0.015126,0.005672 2.8654046,2.8654046 0 0 0 -0.6976711,-0.0964261 z M 4.8792196,18.697005 a 7.7443367,7.7443367 0 0 1 0,-0.01702 l -0.00378,0.03781 c 8.591e-4,-0.0071 0.00291,-0.01368 0.00378,-0.0208 z M 9.6475831,7.891613 C 9.3758862,8.2820563 9.1170302,8.6649631 8.8705024,9.0392722 8.6239746,9.4135815 8.3729184,9.8036427 8.118001,10.211511 L 7.4808327,8.1203886 Z"
     style="fill:#ffffff;fill-opacity:1;stroke-width:0.968042" />
  <circle
     style="fill:#ffffff;fill-opacity:1"
     id="path2"
     cx="6.2742867"
     cy="4.2774816"
     r="1.1821357" />
  <circle
     style="fill:#ffffff;fill-opacity:1"
     id="path2-2"
     cx="23.530157"
     cy="10.012355"
     r="1.1821357" />
  <circle
     style="fill:#ffffff;fill-opacity:1"
     id="path2-7"
     cx="5.8226542"
     cy="21.710695"
     r="1.1821357" />
</svg>
